<svg width="24" height="24" viewBox="0 0 24 24" fill="#ffffff" xmlns="http://www.w3.org/2000/svg">
<g clip-path="url(#clip0_4418_7330)">
<path d="M16.5 22.7507H7.5C4.2 22.7507 3.75 20.9507 3.75 19.0007V10.2207C3.75 9.8107 4.09 9.4707 4.5 9.4707C4.91 9.4707 5.25 9.8107 5.25 10.2207V19.0007C5.25 20.7407 5.55 21.2507 7.5 21.2507H16.5C18.45 21.2507 18.75 20.7407 18.75 19.0007V10.2207C18.75 9.8107 19.09 9.4707 19.5 9.4707C19.91 9.4707 20.25 9.8107 20.25 10.2207V19.0007C20.25 20.9507 19.8 22.7507 16.5 22.7507Z"/>
<path d="M19 10.75H5C2.58 10.75 1.25 9.42 1.25 7V5C1.25 2.58 2.58 1.25 5 1.25H19C21.42 1.25 22.75 2.58 22.75 5V7C22.75 9.42 21.42 10.75 19 10.75ZM5 2.75C3.42 2.75 2.75 3.42 2.75 5V7C2.75 8.58 3.42 9.25 5 9.25H19C20.58 9.25 21.25 8.58 21.25 7V5C21.25 3.42 20.58 2.75 19 2.75H5Z"/>
<path d="M13.8199 14.75H10.1799C9.76993 14.75 9.42993 14.41 9.42993 14C9.42993 13.59 9.76993 13.25 10.1799 13.25H13.8199C14.2299 13.25 14.5699 13.59 14.5699 14C14.5699 14.41 14.2299 14.75 13.8199 14.75Z"/>
</g>
<defs>
<clipPath id="clip0_4418_7330">
<rect width="24" height="24" fill="white"/>
</clipPath>
</defs>
</svg>